<svg width="18" height="13" viewBox="0 0 18 13" fill="none" xmlns="http://www.w3.org/2000/svg">
<path opacity="0.4" d="M5.20248 7.42517L1.50325 7.75232C0.673083 7.75232 0 7.07268 0 6.23442C0 5.39616 0.673083 4.71652 1.50325 4.71652L5.20248 5.04367C5.85375 5.04367 6.38174 5.57681 6.38174 6.23442C6.38174 6.89313 5.85375 7.42517 5.20248 7.42517Z" fill="#FDFDFD"/>
<path d="M17.6247 7.36503C17.5668 7.42341 17.3508 7.67015 17.1479 7.87503C15.9643 9.15831 12.8738 11.2567 11.2571 11.8989C11.0116 12.0013 10.3909 12.2194 10.0582 12.2349C9.74076 12.2349 9.43749 12.1611 9.1484 12.0157C8.78731 11.8119 8.49932 11.4902 8.34005 11.1113C8.23859 10.8491 8.07932 10.0616 8.07932 10.0472C7.92114 9.18695 7.83496 7.78801 7.83496 6.24147C7.83496 4.76984 7.92114 3.42818 8.05096 2.55357C8.06514 2.53815 8.22441 1.5611 8.39786 1.22623C8.71531 0.613788 9.33603 0.234863 10.0004 0.234863H10.0582C10.4913 0.249183 11.4011 0.62921 11.4011 0.642427C12.9316 1.28462 15.949 3.28168 17.1621 4.60901C17.1621 4.60901 17.5047 4.95049 17.653 5.16308C17.8843 5.4693 17.9999 5.84823 17.9999 6.22715C17.9999 6.65014 17.8701 7.04338 17.6247 7.36503Z" fill="#FDFDFD"/>
</svg>
