<svg width="18" height="13" viewBox="0 0 18 13" fill="none" xmlns="http://www.w3.org/2000/svg">
<path opacity="0.4" d="M12.7975 7.42517L16.4967 7.75232C17.3269 7.75232 18 7.07268 18 6.23442C18 5.39616 17.3269 4.71652 16.4967 4.71652L12.7975 5.04367C12.1463 5.04367 11.6183 5.57681 11.6183 6.23442C11.6183 6.89313 12.1463 7.42517 12.7975 7.42517Z" fill="#FF5A3C"/>
<path d="M0.37534 7.36503C0.433157 7.42341 0.649155 7.67015 0.852061 7.87503C2.03568 9.15831 5.12619 11.2567 6.7429 11.8989C6.98835 12.0013 7.60907 12.2194 7.94179 12.2349C8.25924 12.2349 8.56251 12.1611 8.8516 12.0157C9.21269 11.8119 9.50068 11.4902 9.65995 11.1113C9.76141 10.8491 9.92068 10.0616 9.92068 10.0472C10.0789 9.18695 10.165 7.78801 10.165 6.24147C10.165 4.76984 10.0789 3.42818 9.94904 2.55357C9.93486 2.53815 9.77559 1.5611 9.60214 1.22623C9.28469 0.613788 8.66397 0.234863 7.99961 0.234863H7.94179C7.50871 0.249183 6.5989 0.62921 6.5989 0.642427C5.06837 1.28462 2.05096 3.28168 0.837879 4.60901C0.837879 4.60901 0.495338 4.95049 0.346976 5.16308C0.115706 5.4693 7.15256e-05 5.84823 7.15256e-05 6.22715C7.15256e-05 6.65014 0.129888 7.04338 0.37534 7.36503Z" fill="#FF5A3C"/>
</svg>
